<svg width="135" height="52" viewBox="0 0 135 52" fill="none" xmlns="http://www.w3.org/2000/svg">
<circle cx="26" cy="26" r="26" fill="#FF8D28"/>
<path d="M5.56079 33.922L5.51782 27.9352L23.7079 2.33225L32.8662 2.26653L33.0444 27.0845L42.6523 26.9422L42.7 33.5821L33.092 33.7244L33.3141 47.4823L25.4481 47.5387L25.2259 33.7808L5.56079 33.922ZM25.5644 10.4832L14.1658 27.22L25.684 27.1373L25.5644 10.4832Z" fill="white"/>
<path d="M52.7352 17.7629C55.0431 17.7629 56.9081 18.4973 58.3301 19.9659C59.7522 21.4113 60.4632 23.4394 60.4632 26.0504V37.4151H55.5677V26.7148C55.5677 25.1762 55.183 23.9989 54.4137 23.183C53.6444 22.3438 52.5954 21.9241 51.2666 21.9241C49.9145 21.9241 48.8421 22.3438 48.0495 23.183C47.2802 23.9989 46.8955 25.1762 46.8955 26.7148V37.4151H42V18.0427H46.8955V20.4555C47.5483 19.6162 48.3759 18.9635 49.3783 18.4973C50.404 18.0077 51.523 17.7629 52.7352 17.7629Z" fill="#215A50"/>
<path d="M65.8529 15.7348C64.9904 15.7348 64.2677 15.4667 63.6849 14.9305C63.1254 14.371 62.8457 13.6833 62.8457 12.8674C62.8457 12.0515 63.1254 11.3754 63.6849 10.8392C64.2677 10.2797 64.9904 10 65.8529 10C66.7155 10 67.4265 10.2797 67.986 10.8392C68.5688 11.3754 68.8602 12.0515 68.8602 12.8674C68.8602 13.6833 68.5688 14.371 67.986 14.9305C67.4265 15.4667 66.7155 15.7348 65.8529 15.7348ZM68.2657 18.0427V37.4151H63.3702V18.0427H68.2657Z" fill="#215A50"/>
<path d="M77.054 22.064V31.4355C77.054 32.0882 77.2055 32.5661 77.5085 32.8692C77.8349 33.1489 78.3711 33.2888 79.1171 33.2888H81.39V37.4151H78.3128C74.1866 37.4151 72.1234 35.4102 72.1234 31.4005V22.064H69.8155V18.0427H72.1234V13.252H77.054V18.0427H81.39V22.064H77.054Z" fill="#215A50"/>
<path d="M101.451 18.0427V37.4151H96.5206V34.9673C95.8911 35.8065 95.0636 36.4709 94.0378 36.9605C93.0354 37.4267 91.9397 37.6598 90.7508 37.6598C89.2355 37.6598 87.8951 37.3451 86.7295 36.7157C85.5639 36.0629 84.6431 35.1188 83.967 33.8833C83.3143 32.6244 82.9879 31.1324 82.9879 29.4073V18.0427H87.8834V28.708C87.8834 30.2466 88.2681 31.4355 89.0374 32.2747C89.8067 33.0907 90.8557 33.4986 92.1845 33.4986C93.5366 33.4986 94.5973 33.0907 95.3666 32.2747C96.1359 31.4355 96.5206 30.2466 96.5206 28.708V18.0427H101.451Z" fill="#215A50"/>
<path d="M109.428 21.0499C110.058 20.0242 110.874 19.2199 111.876 18.6371C112.902 18.0543 114.068 17.7629 115.373 17.7629V22.9033H114.079C112.541 22.9033 111.375 23.2646 110.582 23.9873C109.813 24.7099 109.428 25.9688 109.428 27.7638V37.4151H104.533V18.0427H109.428V21.0499Z" fill="#215A50"/>
<path d="M134.931 27.3092C134.931 28.0086 134.884 28.638 134.791 29.1975H120.629C120.745 30.5963 121.235 31.6919 122.097 32.4845C122.96 33.2771 124.021 33.6735 125.279 33.6735C127.098 33.6735 128.392 32.8925 129.161 31.3306H134.441C133.882 33.1956 132.809 34.7342 131.224 35.9464C129.639 37.1353 127.692 37.7298 125.384 37.7298C123.519 37.7298 121.841 37.3218 120.349 36.5059C118.88 35.6666 117.726 34.4894 116.887 32.9741C116.071 31.4588 115.663 29.7104 115.663 27.7289C115.663 25.724 116.071 23.964 116.887 22.4487C117.703 20.9334 118.845 19.7678 120.314 18.9519C121.783 18.1359 123.473 17.728 125.384 17.728C127.226 17.728 128.87 18.1243 130.315 18.9169C131.784 19.7095 132.914 20.8401 133.707 22.3088C134.523 23.7542 134.931 25.421 134.931 27.3092ZM129.86 25.9105C129.837 24.6517 129.382 23.6492 128.497 22.9033C127.611 22.134 126.527 21.7493 125.244 21.7493C124.032 21.7493 123.007 22.1223 122.167 22.8683C121.351 23.591 120.85 24.605 120.664 25.9105H129.86Z" fill="#215A50"/>
</svg>
