<svg width="40" height="40" viewBox="0 0 40 40" fill="none" xmlns="http://www.w3.org/2000/svg">
<path d="M20 40C8.954 40 0 31.046 0 20C0 8.954 8.954 0 20 0C31.046 0 40 8.954 40 20C40 31.046 31.046 40 20 40ZM13.78 22.34L13.806 22.326L15.546 28.066C15.77 28.688 16.078 28.8 16.452 28.748C16.828 28.698 17.026 28.496 17.272 28.26L19.648 25.964L24.748 29.74C25.68 30.254 26.35 29.988 26.582 28.876L29.896 13.232C30.262 11.776 29.622 11.192 28.492 11.656L9.026 19.176C7.698 19.708 7.706 20.452 8.786 20.782L13.78 22.342V22.34Z" fill="#215A50"/>
</svg>
