<svg width="27" height="30" viewBox="0 0 27 30" fill="none" xmlns="http://www.w3.org/2000/svg">
<path fill-rule="evenodd" clip-rule="evenodd" d="M1.875 3.75C1.875 2.75544 2.27009 1.80161 2.97335 1.09835C3.67661 0.395088 4.63044 0 5.625 0H20.625C21.6196 0 22.5734 0.395088 23.2766 1.09835C23.9799 1.80161 24.375 2.75544 24.375 3.75V26.25C24.8723 26.25 25.3492 26.4475 25.7008 26.7992C26.0525 27.1508 26.25 27.6277 26.25 28.125C26.25 28.6223 26.0525 29.0992 25.7008 29.4508C25.3492 29.8025 24.8723 30 24.375 30H18.75C18.2527 30 17.7758 29.8025 17.4242 29.4508C17.0725 29.0992 16.875 28.6223 16.875 28.125V24.375C16.875 23.8777 16.6775 23.4008 16.3258 23.0492C15.9742 22.6975 15.4973 22.5 15 22.5H11.25C10.7527 22.5 10.2758 22.6975 9.92417 23.0492C9.57254 23.4008 9.375 23.8777 9.375 24.375V28.125C9.375 28.6223 9.17745 29.0992 8.82582 29.4508C8.47419 29.8025 7.99728 30 7.5 30H1.875C1.37772 30 0.900805 29.8025 0.549175 29.4508C0.197544 29.0992 0 28.6223 0 28.125C0 27.6277 0.197544 27.1508 0.549175 26.7992C0.900805 26.4475 1.37772 26.25 1.875 26.25V3.75ZM7.5 5.625H11.25V9.375H7.5V5.625ZM11.25 13.125H7.5V16.875H11.25V13.125ZM15 5.625H18.75V9.375H15V5.625ZM18.75 13.125H15V16.875H18.75V13.125Z" fill="#4F4F4F" fill-opacity="0.5"/>
</svg>
