<svg width="28" height="30" viewBox="0 0 28 30" fill="none" xmlns="http://www.w3.org/2000/svg">
<path d="M7.72791 19.0385H19.9052L21.2022 5.55288C21.3704 3.78606 21.1242 2.41887 20.4637 1.45132C19.8032 0.483774 18.7463 0 17.2932 0H10.3759C8.92283 0 7.86001 0.483774 7.1875 1.45132C6.51499 2.41887 6.26279 3.78606 6.43092 5.55288L7.72791 19.0385ZM18.4461 24.2308H9.22306V28.774C9.22306 29.1106 9.11197 29.399 8.8898 29.6394C8.66763 29.8798 8.39442 30 8.07018 30H5.76441C5.44016 30 5.16695 29.8918 4.94478 29.6755C4.72261 29.4591 4.61153 29.1827 4.61153 28.8462L4.59351 23.9603C4.17319 23.78 3.80391 23.5487 3.48567 23.2662C3.16742 22.9838 2.90923 22.6382 2.71107 22.2296C2.51292 21.8209 2.3508 21.4153 2.2247 21.0126C2.09861 20.61 2.00553 20.1112 1.94549 19.5162C1.88544 18.9213 1.84641 18.3834 1.8284 17.9026C1.81039 17.4219 1.80138 16.8209 1.80138 16.0998C1.27297 15.9916 0.840643 15.7362 0.504386 15.3335C0.168129 14.9309 0 14.4351 0 13.8462C0 13.1851 0.231177 12.6352 0.693531 12.1965C1.15588 11.7578 1.87343 11.5385 2.84618 11.5385C3.2665 11.5385 3.62377 11.5986 3.918 11.7188C4.21222 11.8389 4.45541 12.0282 4.64756 12.2867C4.8397 12.5451 4.98381 12.7734 5.07989 12.9718C5.17596 13.1701 5.28404 13.4495 5.40414 13.8101L6.10667 19.7776C6.20275 20.2704 6.29882 20.5529 6.39489 20.625C6.51499 20.7212 6.77919 20.7692 7.1875 20.7692H20.4456C20.89 20.7692 21.1572 20.7212 21.2473 20.625C21.3373 20.5288 21.4304 20.2464 21.5265 19.7776L22.229 13.8101C22.3491 13.4495 22.4572 13.1701 22.5533 12.9718C22.6493 12.7734 22.7934 12.5451 22.9856 12.2867C23.1777 12.0282 23.4209 11.8389 23.7151 11.7188C24.0094 11.5986 24.3666 11.5385 24.787 11.5385C25.7597 11.5385 26.4833 11.7578 26.9576 12.1965C27.432 12.6352 27.6692 13.1851 27.6692 13.8462C27.6692 14.4231 27.498 14.9159 27.1558 15.3245C26.8135 15.7332 26.3722 15.9916 25.8318 16.0998C25.8318 16.8329 25.8228 17.4369 25.8047 17.9117C25.7867 18.3864 25.7477 18.9273 25.6877 19.5343C25.6276 20.1412 25.5375 20.649 25.4174 21.0577C25.2974 21.4663 25.1382 21.878 24.9401 22.2927C24.7419 22.7073 24.4837 23.0559 24.1655 23.3383C23.8472 23.6208 23.478 23.8522 23.0576 24.0325V28.8462C23.0576 29.1827 22.9466 29.4591 22.7244 29.6755C22.5022 29.8918 22.229 30 21.9048 30H19.599C19.2747 30 19.0015 29.8918 18.7794 29.6755C18.5572 29.4591 18.4461 29.1827 18.4461 28.8462V24.2308Z" fill="white"/>
</svg>
