<svg width="37" height="17" viewBox="0 0 37 17" fill="none" xmlns="http://www.w3.org/2000/svg">
<path d="M10.0909 11.9C12.8827 11.9 15.1364 9.622 15.1364 6.8C15.1364 3.978 12.8827 1.7 10.0909 1.7C7.29909 1.7 5.04545 3.978 5.04545 6.8C5.04545 9.622 7.29909 11.9 10.0909 11.9ZM10.0909 5.1C11.0159 5.1 11.7727 5.865 11.7727 6.8C11.7727 7.735 11.0159 8.5 10.0909 8.5C9.16591 8.5 8.40909 7.735 8.40909 6.8C8.40909 5.865 9.16591 5.1 10.0909 5.1ZM30.2727 0H16.8182V13.6H3.36364V0H0V17H37V6.8C37 3.043 33.9895 0 30.2727 0ZM33.6364 13.6H20.1818V3.4H30.2727C32.1227 3.4 33.6364 4.93 33.6364 6.8V13.6Z" fill="#4F4F4F" fill-opacity="0.5"/>
</svg>
