<svg width="43" height="30" viewBox="0 0 43 30" fill="none" xmlns="http://www.w3.org/2000/svg">
<path d="M0 25.7143H42.8571V30H0V25.7143ZM25.3714 5.97857C25.6485 5.32601 25.7599 4.61505 25.6956 3.90902C25.6314 3.20298 25.3935 2.5238 25.0032 1.93197C24.6129 1.34014 24.0823 0.854029 23.4586 0.516948C22.8349 0.179867 22.1375 0.0022782 21.4286 0C20.7196 0.0022782 20.0222 0.179867 19.3986 0.516948C18.7749 0.854029 18.2442 1.34014 17.8539 1.93197C17.4636 2.5238 17.2257 3.20298 17.1615 3.90902C17.0973 4.61505 17.2086 5.32601 17.4857 5.97857C9.10714 7.71429 2.72143 14.85 2.14286 23.5714H40.7143C40.1357 14.85 33.75 7.71429 25.3714 5.97857Z" fill="#4F4F4F" fill-opacity="0.5"/>
</svg>
