<svg width="36" height="30" viewBox="0 0 36 30" fill="none" xmlns="http://www.w3.org/2000/svg">
<path d="M18.4496 23.9521C23.6384 23.9521 27.854 19.9723 28.0334 15.0001C27.854 10.0279 23.6384 6.04811 18.4496 6.04811C13.2614 6.04811 9.04464 10.0279 8.86765 15.0001C9.04404 19.9723 13.2608 23.9521 18.4496 23.9521Z" fill="#4F4F4F" fill-opacity="0.5"/>
<path d="M18.4502 1.8C11.1603 1.8 5.24966 7.70998 5.24966 15C5.24966 22.2893 11.1609 28.1999 18.4502 28.1999C25.7396 28.1999 31.6502 22.2893 31.6502 15C31.6502 7.70998 25.7396 1.8 18.4502 1.8ZM18.4496 24.5999C13.1474 24.5999 8.84906 20.4474 8.84906 15.3234C8.84906 15.2142 8.86406 15.108 8.86766 15C8.86406 14.892 8.84906 14.7852 8.84906 14.6766C8.84906 9.55258 13.148 5.39999 18.4496 5.39999C23.7518 5.39999 28.0496 9.55258 28.0496 14.6766C28.0496 14.7852 28.037 14.892 28.034 15C28.0376 15.108 28.0496 15.2142 28.0496 15.3234C28.049 20.4474 23.7518 24.5999 18.4496 24.5999Z" fill="#4F4F4F" fill-opacity="0.5"/>
<path d="M0.888854 0.252655C1.03285 -0.311943 1.31785 0.246055 1.31785 0.246055C1.31785 0.246055 1.41745 6.09004 2.06545 6.15364C2.71345 6.21724 2.21425 0.140456 2.98105 0.0240559C3.69385 -0.0893438 3.28705 6.25024 3.93625 6.18604C4.58305 6.11764 4.69225 0.276055 4.69225 0.276055C4.69225 0.276055 4.98025 -0.281343 5.12244 0.279055C6.87924 7.18504 5.45784 10.008 5.45784 10.008C5.45784 10.008 5.21784 10.6014 4.64785 10.6044C4.59445 10.6014 4.63465 27.006 4.63105 29.2116C4.63225 30.2838 1.33105 30.2508 1.33285 29.1834C1.33525 26.9778 1.39945 10.575 1.34785 10.5762C0.776055 10.5762 0.536655 9.98343 0.536655 9.98343C0.536655 9.98343 -0.879342 7.16224 0.888854 0.252655Z" fill="#4F4F4F" fill-opacity="0.5"/>
<path d="M32.1722 1.1431e-06C32.915 -0.00179885 35.9966 2.22 36.0002 10.4772C36.0038 13.1178 34.5632 13.1172 34.5656 14.769C34.568 16.4178 34.577 29.5325 34.577 29.5325C34.577 29.5325 32.9966 30.6167 31.8218 29.4821L31.8002 0.2346C31.8014 0.2352 31.7972 -0.000598855 32.1722 1.1431e-06Z" fill="#4F4F4F" fill-opacity="0.5"/>
</svg>
