<svg width="33" height="30" viewBox="0 0 33 30" fill="none" xmlns="http://www.w3.org/2000/svg">
<path fill-rule="evenodd" clip-rule="evenodd" d="M31.6249 5.74338L26.4836 0.456791C25.8932 -0.152264 24.64 -0.152264 24.0516 0.456791V4.13954C21.1215 4.26541 17.8239 5.9931 16.0345 8.49225C14.2411 5.99513 10.7105 4.26541 7.78241 4.13954V0.456791C7.18996 -0.152264 5.9388 -0.152264 5.34836 0.456791L0.444113 5.74338C0.15941 6.03775 0 6.43308 0 6.84476C0 7.25644 0.15941 7.65177 0.444113 7.94613L5.34836 13.2307C5.9388 13.8398 7.18996 13.8398 7.78241 13.2307V9.65351C10.596 9.83217 14.1206 12.2014 14.1206 15.1127V30H17.8861V15.1127C17.8861 12.1994 21.236 9.83014 24.0516 9.65351V13.2307C24.64 13.8398 25.8932 13.8398 26.4836 13.2307L31.6249 7.94613C31.9096 7.65177 32.069 7.25644 32.069 6.84476C32.069 6.43308 31.9096 6.03775 31.6249 5.74338Z" fill="#4F4F4F" fill-opacity="0.5"/>
</svg>
