<svg width="93" height="28" viewBox="0 0 93 28" fill="none" xmlns="http://www.w3.org/2000/svg">
<path d="M10.7352 7.76294C13.0431 7.76294 14.9081 8.49727 16.3301 9.96593C17.7522 11.4113 18.4632 13.4394 18.4632 16.0504V27.4151H13.5677V16.7148C13.5677 15.1762 13.183 13.9989 12.4137 13.183C11.6444 12.3438 10.5954 11.9241 9.26657 11.9241C7.91446 11.9241 6.84211 12.3438 6.04949 13.183C5.28019 13.9989 4.89554 15.1762 4.89554 16.7148V27.4151H0V8.04268H4.89554V10.4555C5.54828 9.61625 6.37586 8.96351 7.37828 8.49727C8.40402 8.00771 9.523 7.76294 10.7352 7.76294Z" fill="#215A50"/>
<path d="M23.8529 5.73478C22.9904 5.73478 22.2677 5.46669 21.6849 4.93051C21.1254 4.37102 20.8457 3.68331 20.8457 2.86739C20.8457 2.05147 21.1254 1.37541 21.6849 0.839236C22.2677 0.279745 22.9904 0 23.8529 0C24.7155 0 25.4265 0.279745 25.986 0.839236C26.5688 1.37541 26.8602 2.05147 26.8602 2.86739C26.8602 3.68331 26.5688 4.37102 25.986 4.93051C25.4265 5.46669 24.7155 5.73478 23.8529 5.73478ZM26.2657 8.04268V27.4151H21.3702V8.04268H26.2657Z" fill="#215A50"/>
<path d="M35.054 12.064V21.4355C35.054 22.0882 35.2055 22.5661 35.5085 22.8692C35.8349 23.1489 36.3711 23.2888 37.1171 23.2888H39.39V27.4151H36.3128C32.1866 27.4151 30.1234 25.4102 30.1234 21.4005V12.064H27.8155V8.04268H30.1234V3.25204H35.054V8.04268H39.39V12.064H35.054Z" fill="#215A50"/>
<path d="M59.4511 8.04268V27.4151H54.5206V24.9673C53.8911 25.8065 53.0636 26.4709 52.0378 26.9605C51.0354 27.4267 49.9397 27.6598 48.7508 27.6598C47.2355 27.6598 45.8951 27.3451 44.7295 26.7157C43.5639 26.0629 42.6431 25.1188 41.967 23.8833C41.3143 22.6244 40.9879 21.1324 40.9879 19.4073V8.04268H45.8834V18.708C45.8834 20.2466 46.2681 21.4355 47.0374 22.2747C47.8067 23.0907 48.8557 23.4986 50.1845 23.4986C51.5366 23.4986 52.5973 23.0907 53.3666 22.2747C54.1359 21.4355 54.5206 20.2466 54.5206 18.708V8.04268H59.4511Z" fill="#215A50"/>
<path d="M67.4285 11.0499C68.0579 10.0242 68.8738 9.21994 69.8763 8.63714C70.902 8.05434 72.0676 7.76294 73.3731 7.76294V12.9033H72.0792C70.5406 12.9033 69.375 13.2646 68.5824 13.9873C67.8131 14.7099 67.4285 15.9688 67.4285 17.7638V27.4151H62.5329V8.04268H67.4285V11.0499Z" fill="#215A50"/>
<path d="M92.9307 17.3092C92.9307 18.0086 92.884 18.638 92.7908 19.1975H78.6287C78.7452 20.5963 79.2348 21.6919 80.0973 22.4845C80.9599 23.2771 82.0206 23.6735 83.2794 23.6735C85.0978 23.6735 86.3916 22.8925 87.1609 21.3306H92.4411C91.8816 23.1956 90.8093 24.7342 89.224 25.9464C87.6388 27.1353 85.6922 27.7298 83.3843 27.7298C81.5194 27.7298 79.8409 27.3218 78.3489 26.5059C76.8803 25.6666 75.7263 24.4894 74.8871 22.9741C74.0712 21.4588 73.6632 19.7104 73.6632 17.7289C73.6632 15.724 74.0712 13.964 74.8871 12.4487C75.703 10.9334 76.8453 9.76778 78.314 8.95185C79.7826 8.13593 81.4727 7.72797 83.3843 7.72797C85.226 7.72797 86.8695 8.12427 88.3149 8.91688C89.7835 9.7095 90.9142 10.8401 91.7068 12.3088C92.5227 13.7542 92.9307 15.421 92.9307 17.3092ZM87.8603 15.9105C87.837 14.6517 87.3824 13.6492 86.4965 12.9033C85.6106 12.134 84.5266 11.7493 83.2445 11.7493C82.0322 11.7493 81.0065 12.1223 80.1673 12.8683C79.3513 13.591 78.8501 14.605 78.6636 15.9105H87.8603Z" fill="#215A50"/>
</svg>
