<svg width="0" height="0" class="hidden">
  <symbol fill="none" xmlns="http://www.w3.org/2000/svg" viewBox="0 0 28 30" id="_vector">
    <path d="M7.728 19.038h12.177l1.297-13.485c.168-1.767-.078-3.134-.738-4.102C19.804.484 18.746 0 17.294 0h-6.918C8.923 0 7.86.484 7.188 1.451c-.673.968-.925 2.335-.757 4.102l1.297 13.485zm10.718 5.193H9.223v4.543c0 .337-.111.625-.333.865-.222.24-.496.361-.82.361H5.764a1.13 1.13 0 01-.82-.325 1.108 1.108 0 01-.332-.829l-.018-4.886c-.42-.18-.79-.411-1.108-.694a3.281 3.281 0 01-.775-1.036 8.861 8.861 0 01-.486-1.217 7.679 7.679 0 01-.28-1.497 25.899 25.899 0 01-.117-1.613 49.646 49.646 0 01-.027-1.803 2.22 2.22 0 01-1.297-.767C.168 14.932 0 14.436 0 13.847c0-.66.231-1.21.694-1.65.462-.438 1.18-.657 2.152-.657.42 0 .778.06 1.072.18.294.12.537.31.73.568.192.258.336.486.432.685.096.198.204.478.324.838l.703 5.968c.096.492.192.775.288.847.12.096.384.144.793.144h13.258c.444 0 .711-.048.801-.144.09-.096.183-.379.28-.847l.702-5.968c.12-.36.228-.64.324-.838.096-.199.24-.427.433-.685a1.69 1.69 0 01.73-.568c.293-.12.65-.18 1.071-.18.973 0 1.696.219 2.17.658.475.438.712.988.712 1.65 0 .576-.171 1.069-.513 1.478a2.25 2.25 0 01-1.324.775c0 .733-.01 1.337-.027 1.812a27.148 27.148 0 01-.117 1.622 8.465 8.465 0 01-.27 1.524c-.12.408-.28.82-.478 1.235a3.255 3.255 0 01-.774 1.045 4.071 4.071 0 01-1.108.694v4.814c0 .337-.111.613-.334.83a1.13 1.13 0 01-.82.324H19.6a1.13 1.13 0 01-.82-.325 1.108 1.108 0 01-.333-.829v-4.615z" fill="#fff"></path>
  </symbol>
  <symbol fill="none" xmlns="http://www.w3.org/2000/svg" viewBox="0 0 37 17" id="bedroom">
    <path d="M10.09 11.9c2.793 0 5.046-2.278 5.046-5.1 0-2.822-2.253-5.1-5.045-5.1S5.045 3.978 5.045 6.8c0 2.822 2.254 5.1 5.046 5.1zm0-6.8c.926 0 1.683.765 1.683 1.7 0 .935-.757 1.7-1.682 1.7a1.696 1.696 0 01-1.682-1.7c0-.935.757-1.7 1.682-1.7zM30.274 0H16.818v13.6H3.364V0H0v17h37V6.8C37 3.043 33.99 0 30.273 0zm3.363 13.6H20.182V3.4h10.09c1.85 0 3.364 1.53 3.364 3.4v6.8z" fill="var(--product-color)" fill-opacity=".5"></path>
  </symbol>
  <symbol fill="none" xmlns="http://www.w3.org/2000/svg" viewBox="0 0 43 30" id="bell">
    <path d="M0 25.714h42.857V30H0v-4.286zM25.371 5.98A4.298 4.298 0 0021.43 0a4.298 4.298 0 00-3.943 5.979C9.107 7.714 2.72 14.85 2.143 23.57h38.571c-.578-8.72-6.964-15.856-15.343-17.59z" fill="var(--product-color)" fill-opacity=".5"></path>
  </symbol>
  <symbol fill="none" xmlns="http://www.w3.org/2000/svg" viewBox="0 0 28 30" id="chair">
    <path d="M7.728 19.038h12.177l1.297-13.485c.168-1.767-.078-3.134-.738-4.102C19.804.484 18.746 0 17.294 0h-6.918C8.923 0 7.86.484 7.188 1.451c-.673.968-.925 2.335-.757 4.102l1.297 13.485zm10.718 5.193H9.223v4.543c0 .337-.111.625-.333.865-.222.24-.496.361-.82.361H5.764a1.13 1.13 0 01-.82-.325 1.108 1.108 0 01-.332-.829l-.018-4.886c-.42-.18-.79-.411-1.108-.694a3.281 3.281 0 01-.775-1.036 8.861 8.861 0 01-.486-1.217 7.679 7.679 0 01-.28-1.497 25.899 25.899 0 01-.117-1.613 49.646 49.646 0 01-.027-1.803 2.22 2.22 0 01-1.297-.767C.168 14.932 0 14.436 0 13.847c0-.66.231-1.21.694-1.65.462-.438 1.18-.657 2.152-.657.42 0 .778.06 1.072.18.294.12.537.31.73.568.192.258.336.486.432.685.096.198.204.478.324.838l.703 5.968c.096.492.192.775.288.847.12.096.384.144.793.144h13.258c.444 0 .711-.048.801-.144.09-.096.183-.379.28-.847l.702-5.968c.12-.36.228-.64.324-.838.096-.199.24-.427.433-.685a1.69 1.69 0 01.73-.568c.293-.12.65-.18 1.071-.18.973 0 1.696.219 2.17.658.475.438.712.988.712 1.65 0 .576-.171 1.069-.513 1.478a2.25 2.25 0 01-1.324.775c0 .733-.01 1.337-.027 1.812a27.148 27.148 0 01-.117 1.622 8.465 8.465 0 01-.27 1.524c-.12.408-.28.82-.478 1.235a3.255 3.255 0 01-.774 1.045 4.071 4.071 0 01-1.108.694v4.814c0 .337-.111.613-.334.83a1.13 1.13 0 01-.82.324H19.6a1.13 1.13 0 01-.82-.325 1.108 1.108 0 01-.333-.829v-4.615z" fill="#fff"></path>
  </symbol>
  <symbol fill="none" xmlns="http://www.w3.org/2000/svg" viewBox="0 0 36 30" id="cutlery">
    <path d="M18.45 23.952c5.188 0 9.404-3.98 9.583-8.952-.179-4.972-4.395-8.952-9.583-8.952-5.189 0-9.405 3.98-9.582 8.952.176 4.972 4.393 8.952 9.582 8.952z" fill="var(--product-color)" fill-opacity=".5"></path>
    <path d="M18.45 1.8c-7.29 0-13.2 5.91-13.2 13.2 0 7.29 5.91 13.2 13.2 13.2 7.29 0 13.2-5.91 13.2-13.2 0-7.29-5.91-13.2-13.2-13.2zm0 22.8c-5.303 0-9.6-4.153-9.6-9.277 0-.109.014-.215.018-.323-.004-.108-.019-.215-.019-.323 0-5.124 4.299-9.277 9.6-9.277 5.303 0 9.6 4.153 9.6 9.277 0 .108-.012.215-.015.323.004.108.016.214.016.323-.001 5.124-4.298 9.277-9.6 9.277z" fill="var(--product-color)" fill-opacity=".5"></path>
    <path d="M.889.253c.144-.565.429-.007.429-.007s.1 5.844.747 5.908c.648.063.15-6.014.916-6.13.713-.113.306 6.226.955 6.162.647-.068.756-5.91.756-5.91s.288-.557.43.003c1.757 6.906.336 9.729.336 9.729s-.24.593-.81.596c-.054-.003-.013 16.402-.017 18.608.001 1.072-3.3 1.039-3.298-.029.002-2.205.066-18.608.015-18.607-.572 0-.811-.593-.811-.593S-.88 7.163.889.253zM32.172 0c.743-.002 3.825 2.22 3.828 10.477.004 2.64-1.437 2.64-1.434 4.292l.011 14.763s-1.58 1.085-2.755-.05L31.8.235c.001 0-.003-.236.372-.235z" fill="var(--product-color)" fill-opacity=".5"></path>
  </symbol>
  <symbol fill="none" xmlns="http://www.w3.org/2000/svg" viewBox="0 0 52 52" id="Ellipse 2">
    <circle cx="26" cy="26" r="26" fill="#FF8D28"></circle>
  </symbol>
  <symbol fill="none" xmlns="http://www.w3.org/2000/svg" viewBox="0 0 78 78" id="Ellipse 3">
    <circle cx="39" cy="39" r="39" fill="#215A50" fill-opacity=".2"></circle>
  </symbol>
  <symbol fill="none" xmlns="http://www.w3.org/2000/svg" viewBox="0 0 40 40" id="facebook">
    <path d="M20 0C8.954 0 0 8.954 0 20s8.954 20 20 20 20-8.954 20-20S31.046 0 20 0zm4.738 13.82H21.73c-.356 0-.752.47-.752 1.092v2.171h3.76l-.568 3.096h-3.192v9.294H17.43v-9.294h-3.219v-3.096h3.22v-1.82c0-2.613 1.812-4.736 4.3-4.736h3.006v3.294z" fill="var(--header-color)"></path>
  </symbol>
  <symbol fill="none" xmlns="http://www.w3.org/2000/svg" viewBox="0 0 40 40" id="instagram">
    <path d="M19.995 13.33c-3.673 0-6.67 2.998-6.67 6.67 0 3.672 2.997 6.67 6.67 6.67 3.672 0 6.669-2.998 6.669-6.67 0-3.672-2.997-6.67-6.67-6.67zM39.998 20c0-2.762.025-5.499-.13-8.256-.155-3.202-.886-6.044-3.227-8.385C34.294 1.012 31.457.287 28.255.132 25.493-.024 22.756.002 20 .002c-2.762 0-5.499-.026-8.256.13C8.542.287 5.7 1.017 3.36 3.359 1.012 5.705.287 8.542.132 11.744c-.156 2.762-.13 5.5-.13 8.256 0 2.757-.026 5.499.13 8.256.155 3.202.885 6.044 3.227 8.385 2.346 2.347 5.183 3.072 8.385 3.227 2.762.155 5.499.13 8.256.13 2.761 0 5.498.026 8.255-.13 3.202-.155 6.044-.885 8.386-3.227 2.346-2.346 3.072-5.183 3.227-8.385.16-2.757.13-5.494.13-8.256zM19.995 30.262A10.247 10.247 0 019.733 20 10.247 10.247 0 0119.995 9.738 10.247 10.247 0 0130.256 20a10.247 10.247 0 01-10.261 10.262zm10.682-18.548a2.394 2.394 0 01-2.397-2.396 2.394 2.394 0 012.397-2.397 2.394 2.394 0 012.215 3.314 2.394 2.394 0 01-2.215 1.48z" fill="var(--header-color)"></path>
  </symbol>
  <symbol fill="none" xmlns="http://www.w3.org/2000/svg" viewBox="0 0 33 30" id="junction">
    <path fill-rule="evenodd" clip-rule="evenodd" d="M31.625 5.743L26.484.457c-.59-.61-1.844-.61-2.432 0V4.14c-2.93.125-6.228 1.853-8.017 4.352C14.24 5.995 10.71 4.265 7.782 4.14V.457c-.592-.61-1.843-.61-2.434 0L.444 5.743a1.584 1.584 0 000 2.203l4.904 5.285c.59.609 1.842.609 2.434 0V9.654c2.814.178 6.339 2.547 6.339 5.459V30h3.765V15.113c0-2.914 3.35-5.283 6.166-5.46v3.578c.588.609 1.841.609 2.432 0l5.14-5.285a1.584 1.584 0 000-2.203z" fill="var(--product-color)" fill-opacity=".5"></path>
  </symbol>
  <symbol fill="none" xmlns="http://www.w3.org/2000/svg" viewBox="0 0 135 52" id="logo">
    <circle cx="26" cy="26" r="26" fill="#FF8D28"></circle>
    <path d="M5.56 33.922l-.042-5.987 18.19-25.603 9.158-.065.178 24.817 9.608-.142.048 6.64-9.608.142.222 13.758-7.866.057-.222-13.758-19.665.141zm20.004-23.439L14.166 27.22l11.518-.083-.12-16.654z" fill="var(--active)"></path>
    <path d="M52.735 17.763c2.308 0 4.173.734 5.595 2.203 1.422 1.445 2.133 3.473 2.133 6.084v11.365h-4.895v-10.7c0-1.539-.385-2.716-1.154-3.532-.77-.84-1.819-1.259-3.147-1.259-1.353 0-2.425.42-3.218 1.259-.769.816-1.154 1.993-1.154 3.532v10.7H42V18.043h4.895v2.413a6.637 6.637 0 012.483-1.959c1.026-.49 2.145-.734 3.357-.734zm13.118-2.028c-.863 0-1.585-.268-2.168-.804-.56-.56-.84-1.248-.84-2.064 0-.816.28-1.492.84-2.028.583-.56 1.305-.839 2.168-.839.863 0 1.574.28 2.133.84.583.535.874 1.212.874 2.027 0 .816-.291 1.504-.874 2.063-.56.537-1.27.805-2.133.805zm2.413 2.308v19.372H63.37V18.043h4.896zm8.788 4.021v9.372c0 .652.151 1.13.454 1.433.327.28.863.42 1.61.42h2.272v4.126h-3.077c-4.126 0-6.19-2.005-6.19-6.014v-9.337h-2.308v-4.021h2.308v-4.791h4.931v4.79h4.336v4.022h-4.336zm24.397-4.021v19.372h-4.93v-2.448c-.63.84-1.457 1.504-2.483 1.994-1.003.466-2.098.699-3.287.699-1.516 0-2.856-.315-4.022-.944-1.165-.653-2.086-1.597-2.762-2.833-.653-1.259-.98-2.75-.98-4.476V18.043h4.896v10.665c0 1.539.385 2.728 1.154 3.567.77.816 1.819 1.224 3.147 1.224 1.353 0 2.413-.408 3.183-1.224.769-.84 1.154-2.028 1.154-3.567V18.043h4.93zm7.977 3.007a6.938 6.938 0 012.448-2.413c1.026-.583 2.192-.874 3.497-.874v5.14h-1.294c-1.538 0-2.704.362-3.497 1.084-.769.723-1.154 1.982-1.154 3.777v9.651h-4.895V18.043h4.895v3.007zm25.503 6.26c0 .699-.047 1.328-.14 1.888h-14.162c.116 1.398.606 2.494 1.468 3.286.863.793 1.924 1.19 3.182 1.19 1.819 0 3.113-.782 3.882-2.343h5.28c-.559 1.865-1.632 3.403-3.217 4.615-1.585 1.19-3.532 1.784-5.84 1.784-1.865 0-3.543-.408-5.035-1.224-1.469-.84-2.623-2.017-3.462-3.532-.816-1.515-1.224-3.264-1.224-5.245 0-2.005.408-3.765 1.224-5.28.816-1.516 1.958-2.681 3.427-3.497 1.469-.816 3.159-1.224 5.07-1.224 1.842 0 3.486.396 4.931 1.189a8.202 8.202 0 013.392 3.392c.816 1.445 1.224 3.112 1.224 5zm-5.071-1.4c-.023-1.258-.478-2.26-1.363-3.007-.886-.769-1.97-1.154-3.253-1.154-1.212 0-2.237.373-3.077 1.12-.816.722-1.317 1.736-1.503 3.041h9.196z" fill="var(--header-color)"></path>
  </symbol>
  <symbol fill="none" xmlns="http://www.w3.org/2000/svg" viewBox="0 0 24 24" id="search">
    <path d="M11 19a8 8 0 100-16 8 8 0 000 16zm10 2l-4.35-4.35" stroke="var(--active)" stroke-width="2" stroke-linecap="round" stroke-linejoin="round"></path>
  </symbol>
  <symbol fill="none" xmlns="http://www.w3.org/2000/svg" viewBox="0 0 40 40" id="telegram">
    <path d="M20 40C8.954 40 0 31.046 0 20S8.954 0 20 0s20 8.954 20 20-8.954 20-20 20zm-6.22-17.66l.026-.014 1.74 5.74c.224.622.532.734.906.682.376-.05.574-.252.82-.488l2.376-2.296 5.1 3.776c.932.514 1.602.248 1.834-.864l3.314-15.644c.366-1.456-.274-2.04-1.404-1.576l-19.466 7.52c-1.328.532-1.32 1.276-.24 1.606l4.994 1.56v-.002z" fill="var(--header-color)"></path>
  </symbol>
  <symbol fill="none" xmlns="http://www.w3.org/2000/svg" viewBox="0 0 27 30" id="tower">
    <path fill-rule="evenodd" clip-rule="evenodd" d="M1.875 3.75A3.75 3.75 0 015.625 0h15a3.75 3.75 0 013.75 3.75v22.5a1.875 1.875 0 110 3.75H18.75a1.875 1.875 0 01-1.875-1.875v-3.75A1.875 1.875 0 0015 22.5h-3.75a1.875 1.875 0 00-1.875 1.875v3.75A1.875 1.875 0 017.5 30H1.875a1.875 1.875 0 110-3.75V3.75zM7.5 5.625h3.75v3.75H7.5v-3.75zm3.75 7.5H7.5v3.75h3.75v-3.75zm3.75-7.5h3.75v3.75H15v-3.75zm3.75 7.5H15v3.75h3.75v-3.75z" fill="var(--product-color)" fill-opacity=".5"></path>
  </symbol>
  <symbol fill="none" xmlns="http://www.w3.org/2000/svg" viewBox="0 0 40 40" id="twitter">
    <path d="M20 0C8.954 0 0 8.954 0 20s8.954 20 20 20 20-8.954 20-20S31.046 0 20 0zm8.135 16.383c.009.171.01.342.01.509 0 5.208-3.96 11.21-11.205 11.21a11.115 11.115 0 01-6.038-1.77c.306.037.62.051.94.051a7.889 7.889 0 004.891-1.685 3.947 3.947 0 01-3.679-2.733c.59.112 1.198.088 1.777-.07a3.942 3.942 0 01-3.16-3.862v-.048a3.95 3.95 0 001.785.494 3.937 3.937 0 01-1.218-5.262 11.201 11.201 0 008.118 4.118 3.94 3.94 0 016.713-3.593 7.911 7.911 0 002.5-.957 3.959 3.959 0 01-1.732 2.182 7.913 7.913 0 002.263-.623 7.987 7.987 0 01-1.965 2.04z" fill="var(--header-color)"></path>
  </symbol>
  <symbol fill="none" xmlns="http://www.w3.org/2000/svg" viewBox="0 0 18 18" id="vec">
    <path d="M9 17A8 8 0 109 1a8 8 0 000 16z" stroke="#fff" stroke-width="2" stroke-linecap="round" stroke-linejoin="round"></path>
  </symbol>
  <symbol fill="none" xmlns="http://www.w3.org/2000/svg" viewBox="0 0 24 17" id="Vector">
    <path d="M1 1h4l2.68 13.39a2 2 0 002 1.61h9.72a2 2 0 002-1.61L23 6H6" stroke="var(--active)" stroke-width="2" stroke-linecap="round" stroke-linejoin="round"></path>
  </symbol>
</svg>